- 
http://www.Speed.Cd 
       
http://www.Speed.Cd      fast  and The Hottest Private Tracker on the net

(((--Submit for invite!!--)))

Please Seed back to make the speed Faster!!!

------------------nfo--------------------------
-[IMG]http://img15.imageshack.us/img15/4078/greenlanternbluraydvd.jpg[/IMG]


[color=blue][size=5][b]Green.Lantern.2011.EXTENDED.BDRip.XVID.AC3.HQ.Hive-CM8[/b][/size][/color]


[b]Thx Hive

CM8 Doing It Right The First Time :D


Source: Bluray

Also a bit late, but better late than never :D


Video: 720x304 @bitrate 1800 2pass
Audio: English DTS to AC3 5.1 @384
Sample: Yes, included
Subs: Yes, english in srt /subs[/b]
 
http://www.imdb.com/title/tt1133985/


General
Complete name                    : Green.Lantern.2011.EXTENDED.BDRip.XVID.AC3.HQ.Hive-CM8.avi
Format                           : AVI
Format/Info                      : Audio Video Interleave
File size                        : 1.90 GiB
Duration                         : 2h 3mn
Overall bit rate                 : 2 195 Kbps
Writing application              : Nandub v1.0rc2
Writing library                  : Nandub build 1853/release

Video
ID                               : 0
Format                           : MPEG-4 Visual
Format profile                   : Advanced Simple@L5
Format settings, BVOP            : 1
Format settings, QPel            : Yes
Format settings, GMC             : No warppoints
Format settings, Matrix          : Default (H.263)
Muxing mode                      : Packed bitstream
Codec ID                         : XVID
Codec ID/Hint                    : XviD
Duration                         : 2h 3mn
Bit rate                         : 1 801 Kbps
Width                            : 720 pixels
Height                           : 304 pixels
Display aspect ratio             : 2.40:1
Frame rate                       : 23.976 fps
Color space                      : YUV
Chroma subsampling               : 4:2:0
Bit depth                        : 8 bits
Scan type                        : Progressive
Compression mode                 : Lossy
Bits/(Pixel*Frame)               : 0.343
Stream size                      : 1.56 GiB (82%)
Writing library                  : XviD 1.2.1 (UTC 2008-12-04)

Audio
ID                               : 1
Format                           : AC-3
Format/Info                      : Audio Coding 3
Mode extension                   : CM (complete main)
Codec ID                         : 2000
Duration                         : 2h 3mn
Bit rate mode                    : Constant
Bit rate                         : 384 Kbps
Channel(s)                       : 6 channels
Channel positions                : Front: L C R, Side: L R, LFE
Sampling rate                    : 48.0 KHz
Bit depth                        : 16 bits
Compression mode                 : Lossy
Stream size                      : 340 MiB (17%)
Alignment                        : Split accross interleaves
Interleave, duration             : 42 ms (1.00 video frame)
Interleave, preload duration     : 500 ms


Plot:
A test pilot is granted a mystical green ring that bestows him with otherworldly powers and
a membership into an intergalactic squadron tasked with keeping peace within the universe.


Cast:
Ryan Reynolds     ...    Hal Jordan / Green Lantern
Blake Lively      ...    Carol Ferris
Peter Sarsgaard   ...    Hector Hammond
Mark Strong       ...    Sinestro
Tim Robbins       ...    Hammond


[img]http://img513.imageshack.us/img513/8825/ggrgrr.png[/img]
[img]http://img163.imageshack.us/img163/1223/ggrggrrggrgrrgrr.png[/img]
[img]http://img402.imageshack.us/img402/9296/ggrr.png[/img]
[img]http://img15.imageshack.us/img15/6195/80606063.png[/img]
[img]http://img824.imageshack.us/img824/8425/ggrggrrggrgrrr.png[/img]
[img]http://img838.imageshack.us/img838/5198/ggrggrrgrr.png[/img]
[img]http://img834.imageshack.us/img834/9190/ggrgrgrr.png[/img]



Greetz

ViSiON,SiC,SANTi,3LT0N,YanKeeS,MAGNET,THC,T0XiC,LKRG,FANTASIA-PLAY,FANTASIA-M,FLAWL3SS,
D2U,WBZ,BHRG,NOVA,Vik,Rapeseed,SAFC,goldadvance,MEMORY100,KaN1vE,Unevano,Pinnz,Wayne
Mr Hive,cedrict wink,and all P2P groups
Great Work Guys :D

LOOKING FOR ANYTHING YOU WANT TO LOOK AND SOUND BETTER

CM8@hushmail.com